<?xml version="1.0" encoding="iso-8859-1"?>
<!-- Generator: Adobe Illustrator 18.1.1, SVG Export Plug-In . SVG Version: 6.00 Build 0)  -->
<svg version="1.1" id="Capa_1" xmlns="http://www.w3.org/2000/svg" xmlns:xlink="http://www.w3.org/1999/xlink" x="0px" y="0px"
	 viewBox="0 0 314.873 314.873" style="enable-background:new 0 0 314.873 314.873;" xml:space="preserve">
<g>
	<g>
		<path style="fill:#010002;" d="M89.047,287.106c0.005-0.016,0.011-0.027,0.016-0.044c2.605,2.11,5.309,4.107,8.159,5.918
			c-2.632-3.753-4.547-8.017-5.608-12.787c-0.228-1.012-0.5-1.996-0.642-3.057c-0.348-2.54-5.265-28.925,2.257-55.071
			c3.573-12.417,9.921-24.786,20.951-34.516c0,0-0.468,46.216,29.882,75.233c0,0-1.001-16.203,15.686-47.75
			c17.775-33.608,4.525-78.469,4.525-78.469s27.603,25.792,41.81,64.328c7.283-9.187,12.651-13.75,11.852-11.683
			c-5.064,13.114-2.442,22.866,1.762,32.531c4.857,11.156,11.83,22.197,11.656,38.15c-0.087,8.088-4.003,16.475-9.573,24.427
			c-1.664,2.377-3.465,4.705-5.379,6.978c2.241-1.327,4.378-2.736,6.402-4.237c0.005,0.016,0.011,0.027,0.016,0.044
			c0,0,51.399-34.081,51.725-63.86c0.326-29.779-24.323-42.43-13.418-70.681c1.012-2.616-7.859,5.385-18.02,20.005
			C218.942,66.933,114.708,0,114.708,0s47.527,54.603,29.942,108.923c-17.579,54.32-6.848,86.965-6.848,86.965
			c-30.551-41.761-14.87-109.407-14.87-109.407c-28.745,25.357-44.622,56.762-53.221,83.294
			c-8.686-12.847-15.893-19.657-14.952-17.209c10.905,28.251-13.745,40.902-13.418,70.681
			C41.672,253.02,89.047,287.106,89.047,287.106z"/>
		<polygon style="fill:#010002;" points="176.496,314.873 191.644,314.873 272.392,314.873 272.392,303.304 205.024,303.304 
			190.92,303.304 185.993,303.304 173.766,303.304 119.413,303.304 107.741,303.304 40.324,303.304 40.324,314.873 148.991,314.873 
					"/>
	</g>
</g>
<g>
</g>
<g>
</g>
<g>
</g>
<g>
</g>
<g>
</g>
<g>
</g>
<g>
</g>
<g>
</g>
<g>
</g>
<g>
</g>
<g>
</g>
<g>
</g>
<g>
</g>
<g>
</g>
<g>
</g>
</svg>
