<?xml version="1.0" encoding="iso-8859-1"?>
<!-- Generator: Adobe Illustrator 16.0.0, SVG Export Plug-In . SVG Version: 6.00 Build 0)  -->
<!DOCTYPE svg PUBLIC "-//W3C//DTD SVG 1.1//EN" "http://www.w3.org/Graphics/SVG/1.1/DTD/svg11.dtd">
<svg version="1.1" id="Capa_1" xmlns="http://www.w3.org/2000/svg" xmlns:xlink="http://www.w3.org/1999/xlink" x="0px" y="0px"
	 width="15.949px" height="15.949px" viewBox="0 0 15.949 15.949" style="enable-background:new 0 0 15.949 15.949;"
	 xml:space="preserve">
<g>
	<path d="M12.064,1.067C11.692,0.337,9.774,0,7.976,0c-1.799,0-3.718,0.337-4.09,1.067c-0.042,0.082-0.07,0.168-0.07,0.261
		c0,0.028,0.008,0.053,0.012,0.08c0.014,0.094,0.048,0.183,0.106,0.266l3.664,9.158v3.501c-1.552,0.049-2.76,0.388-2.76,0.803
		c0,0.449,1.404,0.813,3.136,0.813s3.136-0.364,3.136-0.813c0-0.416-1.207-0.755-2.76-0.803v-3.5l3.666-9.159l0.106-0.266
		c0.004-0.027,0.012-0.052,0.012-0.08C12.134,1.235,12.106,1.149,12.064,1.067z M7.976,10.366c0,0,0.249-4.102,1.945-4.861
		L7.976,10.366z M10.366,4.39C9.726,3.944,8.19,3.926,7.976,3.926c-0.216,0-1.751,0.018-2.391,0.464L4.702,2.186
		c0.813,0.318,2.069,0.47,3.274,0.47c1.203,0,2.46-0.151,3.273-0.469L10.366,4.39z M11.308,1.589
		c-0.496,0.254-1.609,0.544-3.332,0.544c-1.723,0-2.837-0.29-3.333-0.544C4.447,1.49,4.338,1.396,4.338,1.328
		c0-0.068,0.109-0.162,0.304-0.261c0.497-0.253,1.61-0.544,3.333-0.544c1.723,0,2.836,0.291,3.333,0.544
		c0.194,0.099,0.303,0.193,0.303,0.261C11.611,1.396,11.503,1.49,11.308,1.589z"/>
</g>
<g>
</g>
<g>
</g>
<g>
</g>
<g>
</g>
<g>
</g>
<g>
</g>
<g>
</g>
<g>
</g>
<g>
</g>
<g>
</g>
<g>
</g>
<g>
</g>
<g>
</g>
<g>
</g>
<g>
</g>
</svg>
