<?xml version="1.0" standalone="no"?>
<!DOCTYPE svg PUBLIC "-//W3C//DTD SVG 20010904//EN"
 "http://www.w3.org/TR/2001/REC-SVG-20010904/DTD/svg10.dtd">
<svg version="1.0" xmlns="http://www.w3.org/2000/svg"
 width="512.000000pt" height="512.000000pt" viewBox="0 0 512.000000 512.000000"
 preserveAspectRatio="xMidYMid meet">
<metadata>
Created by potrace 1.15, written by Peter Selinger 2001-2017
</metadata>
<g transform="translate(0.000000,512.000000) scale(0.100000,-0.100000)"
fill="#000000" stroke="none">
<path d="M3220 4619 c-36 -5 -83 -11 -105 -12 -47 -4 -176 -63 -255 -117 -30
-21 -93 -77 -140 -124 -46 -47 -89 -86 -95 -86 -6 0 -17 8 -26 18 -22 25 -127
21 -172 -7 -59 -36 -283 -273 -296 -312 -9 -29 -10 -78 -2 -142 1 -5 5 -6 10
-3 5 3 12 -2 15 -11 9 -23 -209 -243 -241 -243 -13 0 -23 5 -23 10 0 30 -85
-11 -105 -50 -19 -37 -19 -58 1 -77 14 -15 1 -30 -147 -179 -148 -148 -164
-162 -186 -153 -42 16 -64 10 -99 -25 -36 -36 -43 -69 -19 -96 13 -14 -2 -32
-150 -180 -150 -150 -167 -164 -185 -152 -27 16 -46 15 -81 -5 -40 -24 -56
-66 -40 -107 11 -29 10 -33 -25 -63 -33 -29 -101 -63 -90 -44 8 13 -154 -37
-212 -65 -102 -50 -199 -175 -218 -284 -4 -19 -11 -40 -15 -46 -10 -12 10
-216 21 -224 4 -3 18 -25 31 -50 23 -45 25 -51 28 -70 0 -5 6 -10 12 -10 15 0
89 -67 82 -74 -3 -3 8 -8 23 -12 16 -4 52 -19 80 -34 38 -19 67 -26 120 -28
38 -1 81 -5 96 -8 19 -4 53 7 121 40 74 35 105 57 147 103 66 72 133 206 132
265 -1 23 6 57 14 77 19 46 283 312 304 307 68 -18 90 -17 115 9 22 21 25 31
19 62 -4 21 -10 43 -15 49 -5 6 54 72 154 172 l163 163 47 -11 c81 -18 113 15
97 97 l-9 48 159 159 158 159 43 -11 c33 -8 48 -8 70 3 35 19 40 35 29 93 -5
26 -5 51 0 55 8 9 50 -9 62 -26 8 -13 54 -12 109 3 37 10 68 35 188 156 l144
143 -6 41 c-7 51 3 57 36 22 50 -51 64 -62 81 -62 21 0 63 -26 94 -57 13 -13
27 -21 31 -18 5 2 32 -18 60 -46 28 -27 51 -47 51 -43 0 5 18 -9 40 -31 21
-21 37 -42 35 -45 -5 -8 25 -37 32 -32 7 5 63 -70 63 -84 0 -7 8 -18 19 -23
21 -12 61 -74 61 -96 0 -8 6 -18 14 -22 24 -14 52 -82 55 -131 1 -7 5 -11 9
-8 10 6 42 -90 42 -127 0 -15 4 -27 9 -27 11 0 32 -106 25 -125 -4 -8 -1 -22
6 -30 15 -19 9 -341 -8 -371 -6 -12 -13 -46 -16 -75 -5 -60 -40 -175 -61 -199
-15 -18 -47 -88 -50 -111 -5 -50 -147 -241 -249 -336 -73 -68 -176 -144 -270
-197 -27 -16 -46 -24 -42 -18 8 13 -56 -15 -94 -40 -32 -22 -196 -69 -214 -62
-8 3 -35 -2 -62 -11 -30 -10 -73 -15 -119 -13 -85 2 -130 -14 -150 -53 -19
-37 -19 -59 3 -87 20 -26 90 -46 131 -38 14 3 67 8 118 11 51 2 100 8 110 14
23 11 170 52 206 57 15 2 40 11 55 19 15 8 65 36 112 62 144 78 230 143 356
268 122 122 207 236 282 378 20 38 43 82 51 96 8 14 16 37 17 51 3 28 49 194
59 209 15 25 26 455 13 484 -5 9 -9 51 -10 92 0 41 -4 73 -8 70 -8 -5 -26 98
-22 129 1 10 -3 25 -9 32 -14 18 -39 113 -33 129 3 7 -1 19 -9 26 -21 21 -43
92 -46 148 -1 8 -4 11 -8 8 -7 -8 -41 63 -48 101 -2 14 -8 28 -13 31 -13 8
-48 80 -56 115 -4 15 -10 26 -13 22 -7 -6 -53 69 -58 94 -2 8 -19 33 -39 55
-20 21 -37 43 -37 47 -1 4 -2 12 -3 16 0 4 -18 26 -40 47 -21 22 -43 52 -48
68 -6 15 -16 27 -23 27 -7 0 -30 19 -51 42 -36 40 -110 77 -156 78 -9 0 -18 5
-20 11 -8 23 -173 -22 -229 -62 -15 -11 -33 -18 -40 -17 -7 2 -14 -4 -14 -12
-1 -8 -5 -23 -9 -33 -5 -9 -6 -31 -4 -47 4 -26 -7 -18 -98 73 l-102 102 67 68
c36 38 93 89 126 114 66 50 122 82 110 63 -5 -9 -2 -9 11 -2 92 48 214 76 246
56 7 -5 32 -9 55 -10 23 -1 61 -11 85 -23 25 -11 49 -21 56 -21 17 0 86 -42
100 -62 7 -10 17 -16 22 -13 12 7 87 -42 94 -61 3 -8 15 -14 26 -14 11 0 41
-20 66 -45 24 -25 51 -45 58 -45 8 0 32 -20 54 -45 22 -25 44 -45 49 -45 12 0
69 -61 76 -82 4 -10 12 -18 19 -18 12 0 73 -67 73 -80 0 -3 17 -23 38 -44 22
-21 43 -52 49 -67 5 -16 14 -29 18 -29 10 0 63 -78 68 -99 2 -8 9 -19 16 -25
21 -18 58 -85 52 -95 -3 -5 1 -15 10 -22 21 -17 55 -86 59 -117 1 -13 7 -27
12 -31 14 -9 43 -88 43 -116 0 -14 4 -25 10 -25 10 0 37 -90 38 -129 1 -13 5
-27 10 -30 12 -9 33 -108 26 -126 -4 -8 -1 -21 5 -29 20 -24 32 -241 28 -492
-3 -133 -9 -248 -13 -256 -4 -7 -9 -44 -10 -83 -2 -39 -8 -91 -14 -115 -7 -25
-13 -63 -15 -85 -5 -69 -25 -169 -42 -205 -9 -19 -16 -48 -15 -64 1 -31 -35
-173 -48 -191 -12 -16 -30 -76 -21 -71 11 7 -45 -182 -64 -216 -8 -14 -16 -39
-16 -55 -2 -38 -46 -188 -70 -240 -12 -23 -18 -47 -14 -52 3 -6 -8 -57 -25
-115 -16 -57 -30 -111 -30 -119 0 -28 45 -64 90 -71 38 -6 47 -4 67 17 15 15
25 38 28 64 4 51 40 175 67 230 11 23 17 46 14 51 -7 12 39 174 65 229 11 23
18 46 15 51 -6 11 48 198 63 216 6 7 13 33 15 57 6 55 39 188 55 216 6 12 12
35 12 50 2 46 22 167 31 185 5 10 11 54 13 99 3 45 9 98 15 118 19 70 33 668
17 704 -4 9 -8 51 -9 92 0 41 -4 73 -8 70 -9 -5 -26 98 -22 132 1 12 -2 24 -7
28 -12 7 -30 68 -37 123 -2 20 -8 39 -13 42 -11 7 -42 101 -36 110 3 5 -1 15
-9 22 -18 19 -57 108 -51 118 3 5 -1 15 -9 22 -17 18 -60 99 -60 116 -1 7 -6
16 -11 20 -19 13 -66 93 -60 102 3 5 -3 15 -12 22 -23 17 -73 84 -73 97 0 6
-20 32 -45 57 -24 26 -43 50 -42 54 1 3 -14 22 -33 42 -19 20 -64 65 -100 102
-36 36 -60 66 -55 66 6 1 -7 10 -27 20 -20 11 -51 38 -69 60 -18 22 -35 38
-38 35 -9 -5 -92 61 -91 72 1 4 -7 10 -16 12 -26 5 -92 50 -98 67 -3 8 -13 14
-23 14 -21 0 -80 34 -106 61 -10 11 -22 17 -28 14 -5 -3 -38 8 -74 25 -36 17
-69 29 -73 26 -4 -2 -41 2 -82 10 -41 8 -79 13 -85 13 -5 -1 -39 -6 -75 -10z
m-670 -526 c0 -7 8 -16 18 -20 25 -9 82 -65 82 -80 0 -8 8 -16 18 -20 25 -9
82 -65 82 -80 0 -8 8 -16 18 -20 25 -9 82 -65 82 -80 0 -8 12 -18 27 -24 l27
-10 -109 -109 -108 -108 -158 157 c-88 87 -159 163 -159 169 0 7 -4 12 -9 12
-4 0 -21 10 -36 21 l-27 22 108 108 c102 102 109 107 126 92 10 -9 18 -22 18
-30z m680 -123 c0 -5 11 -10 24 -10 31 0 82 -42 90 -75 4 -14 12 -25 20 -25
12 0 66 -67 66 -83 0 -3 20 -27 45 -53 25 -25 45 -52 45 -60 0 -8 18 -33 40
-55 53 -55 54 -87 1 -34 -22 21 -39 42 -38 46 1 4 -22 28 -51 53 -30 25 -50
46 -46 46 13 0 -15 24 -31 26 -18 3 -77 44 -88 61 -4 7 -15 13 -23 13 -21 0
-98 40 -107 56 -4 8 -16 14 -26 14 -10 0 -32 5 -50 11 l-31 11 24 19 c55 43
136 66 136 39z m-920 -315 c5 -14 15 -25 22 -25 17 0 78 -61 78 -77 0 -8 9
-17 20 -21 19 -7 17 -10 -19 -46 -33 -32 -43 -37 -55 -27 -8 7 -20 11 -28 10
-21 -5 -118 22 -118 32 0 5 -15 9 -33 9 -19 0 -37 3 -41 7 -7 7 142 163 157
163 4 0 12 -11 17 -25z m-292 -290 c12 -9 27 -15 34 -13 21 4 118 -23 118 -33
0 -5 15 -9 32 -9 32 0 27 -5 -122 -155 -107 -107 -160 -153 -170 -149 -8 4
-26 8 -40 9 -45 4 -120 27 -120 36 0 5 -16 9 -35 9 -19 0 -35 3 -35 7 0 9 302
313 310 313 3 0 15 -7 28 -15z m-448 -455 c0 -4 22 -10 50 -13 27 -3 67 -14
87 -24 20 -9 46 -16 57 -15 13 1 -33 -52 -139 -158 -88 -88 -162 -155 -165
-150 -3 6 -28 12 -55 15 -26 2 -67 14 -90 25 -24 11 -47 20 -51 19 -54 -9 -41
9 110 160 118 119 163 157 177 154 11 -3 19 -9 19 -13z m-458 -450 c2 -5 25
-12 52 -15 27 -2 68 -14 92 -26 24 -11 48 -18 54 -14 33 20 -3 -23 -95 -115
-67 -67 -105 -98 -105 -87 0 10 -8 20 -17 24 -26 9 -83 65 -83 80 0 8 -8 16
-17 20 -46 16 -44 24 19 84 60 55 92 71 100 49z m-198 -321 c69 -70 126 -133
126 -141 0 -8 -5 -19 -10 -24 -6 -6 -12 -29 -14 -52 -5 -61 -52 -124 -120
-159 -61 -31 -212 -38 -240 -10 -10 9 -25 17 -35 17 -20 0 -74 53 -77 77 -2 9
-9 20 -18 25 -21 12 -36 64 -37 133 -2 76 31 145 95 202 51 45 90 60 157 59
46 -1 48 -3 173 -127z"/>
<path d="M4117 2630 c-17 -14 -20 -27 -18 -99 1 -52 -2 -88 -10 -97 -6 -8 -9
-26 -6 -42 7 -33 -17 -178 -32 -196 -6 -7 -13 -33 -15 -57 -5 -52 -59 -204
-85 -239 -29 -40 -52 -90 -46 -100 3 -5 0 -12 -6 -16 -8 -5 -9 -3 -4 6 5 8 4
11 -3 6 -6 -4 -9 -12 -6 -20 6 -15 -90 -163 -174 -267 -140 -174 -403 -389
-482 -395 -45 -3 -142 -56 -162 -89 -19 -31 -25 -81 -9 -70 5 3 12 -3 16 -14
3 -11 25 -27 49 -36 l43 -17 108 51 c59 29 139 72 177 96 38 25 73 43 77 40 5
-2 17 5 27 18 l19 22 -25 -20 -25 -20 19 22 c10 13 22 20 27 17 17 -10 285
258 275 275 -3 5 4 17 17 27 l22 19 -20 -25 -20 -25 22 19 c13 10 20 23 17 28
-3 4 8 25 25 46 36 46 117 176 160 257 17 33 41 76 53 94 12 19 23 44 23 55 1
27 64 217 76 232 5 6 11 38 14 70 2 33 9 82 15 109 6 28 13 88 15 135 3 47 7
103 9 126 5 36 2 43 -22 61 -37 27 -109 34 -135 13z"/>
<path d="M4300 1865 c-26 -8 -42 -23 -62 -61 -39 -70 -63 -127 -60 -141 4 -16
-103 -241 -127 -268 -26 -30 -76 -119 -60 -110 7 5 2 -9 -11 -31 -144 -238
-198 -314 -270 -384 -51 -49 -70 -79 -70 -106 0 -26 53 -70 94 -78 33 -6 42
-3 82 29 53 44 178 201 170 214 -4 5 -1 13 5 17 8 5 9 3 4 -6 -5 -9 -4 -11 4
-6 6 4 9 11 6 16 -3 4 21 50 53 102 33 51 76 125 97 163 21 39 46 79 55 90 24
29 74 119 62 111 -10 -6 78 203 116 277 23 42 20 103 -6 149 -19 33 -37 38
-82 23z"/>
</g>
</svg>
