<svg id="Capa_1" enable-background="new 0 0 512 512" height="512" viewBox="0 0 512 512" width="512" xmlns="http://www.w3.org/2000/svg"><path d="m256 142c-39.149 0-71-31.851-71-71s31.85-71 71-71 71 31.851 71 71-31.851 71-71 71z"/><path d="m322.443 147.002c-17.772 15.556-41.025 24.998-66.443 24.998s-48.671-9.442-66.443-24.998c-56.792 15.941-98.557 68.182-98.557 129.998 0 30.327 24.673 55 55 55h43.944c23.29 0 45.933-5.988 66.056-17.396 20.122 11.408 42.766 17.396 66.056 17.396h43.944c30.327 0 55-24.673 55-55 0-61.816-41.765-114.057-98.557-129.998zm38.353 112.464c-1.223 7.337-7.578 12.537-14.778 12.537-.819 0-1.649-.067-2.484-.207l-44.192-7.365c-14.018-2.336-26.433-9.884-34.958-21.252l-8.384-11.179-8.384 11.179c-8.525 11.368-20.94 18.916-34.958 21.252l-44.192 7.365c-8.174 1.364-15.9-4.158-17.262-12.33-1.362-8.171 4.158-15.9 12.33-17.262l44.192-7.365c6.371-1.062 12.014-4.493 15.89-9.66l20.384-27.179c2.833-3.777 7.279-6 12-6s9.167 2.223 12 6l20.384 27.179c3.875 5.167 9.519 8.598 15.89 9.66l44.191 7.365c8.173 1.362 13.693 9.09 12.331 17.262z"/><path d="m426.41 512h-242.705c-18.063 0-32.705-14.643-32.705-32.705 0-15.806 11.304-29.35 26.855-32.178l238.79-43.416c33.509-6.093 64.355 19.65 64.355 53.709 0 30.149-24.441 54.59-54.59 54.59z"/><path d="m369.043 381.864-12.303-19.864h-34.685c-22.774 0-45.318-4.765-66.056-13.878-20.737 9.113-43.281 13.878-66.055 13.878h-34.684l-12.302 19.864 113.042 20.553z"/><path d="m172.167 417.667-76.812-13.966c-33.509-6.093-64.355 19.65-64.355 53.709 0 30.149 24.441 54.59 54.59 54.59h44.639c-5.849-9.529-9.229-20.729-9.229-32.705 0-30.214 21.5-56.076 51.167-61.628z"/></svg>