<?xml version="1.0" encoding="iso-8859-1"?>
<!-- Generator: Adobe Illustrator 19.0.0, SVG Export Plug-In . SVG Version: 6.00 Build 0)  -->
<svg version="1.1" id="Layer_1" xmlns="http://www.w3.org/2000/svg" xmlns:xlink="http://www.w3.org/1999/xlink" x="0px" y="0px"
	 viewBox="0 0 330 330" style="enable-background:new 0 0 330 330;" xml:space="preserve">
<g id="XMLID_797_">
	<path id="XMLID_798_" d="M164.998,210c35.887,0,65.085-29.195,65.085-65.12l-0.204-80c0-35.776-29.105-64.88-64.881-64.88
		c-35.773,0-64.877,29.104-64.877,64.843l-0.203,80.076C99.918,180.805,129.112,210,164.998,210z"/>
	<path id="XMLID_799_" d="M280.084,154.96c0-8.285-6.717-15-15-15c-8.284,0-15,6.715-15,15c0,46.732-37.878,84.773-84.546,85.067
		c-0.181-0.007-0.357-0.027-0.54-0.027c-0.184,0-0.359,0.02-0.541,0.027c-46.664-0.293-84.541-38.335-84.541-85.067
		c0-8.285-6.717-15-15-15c-8.284,0-15,6.715-15,15c0,58.372,43.688,106.731,100.082,114.104V300H117c-8.284,0-15,6.716-15,15
		s6.716,15,15,15h96.002c8.283,0,15-6.716,15-15s-6.717-15-15-15h-33.004v-30.936C236.395,261.69,280.084,213.332,280.084,154.96z"
		/>
</g>
<g>
</g>
<g>
</g>
<g>
</g>
<g>
</g>
<g>
</g>
<g>
</g>
<g>
</g>
<g>
</g>
<g>
</g>
<g>
</g>
<g>
</g>
<g>
</g>
<g>
</g>
<g>
</g>
<g>
</g>
</svg>
