<?xml version="1.0" encoding="iso-8859-1"?>
<!-- Generator: Adobe Illustrator 19.0.0, SVG Export Plug-In . SVG Version: 6.00 Build 0)  -->
<svg version="1.1" id="Layer_1" xmlns="http://www.w3.org/2000/svg" xmlns:xlink="http://www.w3.org/1999/xlink" x="0px" y="0px"
	 viewBox="0 0 330 330" style="enable-background:new 0 0 330 330;" xml:space="preserve">
<g id="XMLID_520_">
	<path id="XMLID_521_" d="M315,0h-60H75H15C6.716,0,0,6.716,0,15v60v60v60v60v60c0,8.284,6.716,15,15,15h60h180h60
		c8.283,0,15-6.716,15-15v-60v-60v-60V75V15C330,6.716,323.283,0,315,0z M60,300H30v-30h30V300z M60,240H30v-30h30V240z M60,180H30
		v-30h30V180z M60,120H30V90h30V120z M60,60H30V30h30V60z M240,195v60v45H90v-45v-60v-15h150V195z M240,75v60v15H90v-15V75V30h150
		V75z M300,300h-30v-30h30V300z M300,240h-30v-30h30V240z M300,180h-30v-30h30V180z M300,120h-30V90h30V120z M300,60h-30V30h30V60z"
		/>
</g>
<g>
</g>
<g>
</g>
<g>
</g>
<g>
</g>
<g>
</g>
<g>
</g>
<g>
</g>
<g>
</g>
<g>
</g>
<g>
</g>
<g>
</g>
<g>
</g>
<g>
</g>
<g>
</g>
<g>
</g>
</svg>
