<svg height="512pt" viewBox="-66 0 512 512" width="512pt" xmlns="http://www.w3.org/2000/svg"><path d="m190 311c-13.785156 0-25 11.214844-25 25s11.214844 25 25 25 25-11.214844 25-25-11.214844-25-25-25zm0 0"/><path d="m190 251c-46.867188 0-85 38.132812-85 85s38.132812 85 85 85 85-38.132812 85-85-38.132812-85-85-85zm0 140c-30.328125 0-55-24.671875-55-55s24.671875-55 55-55 55 24.671875 55 55-24.671875 55-55 55zm0 0"/><path d="m365 0h-350c-8.285156 0-15 6.714844-15 15v482c0 8.285156 6.714844 15 15 15h350c8.285156 0 15-6.714844 15-15v-482c0-8.285156-6.714844-15-15-15zm-175 61c35.839844 0 65 29.160156 65 65s-29.160156 65-65 65-65-29.160156-65-65 29.160156-65 65-65zm-130-16c8.285156 0 15 6.714844 15 15s-6.714844 15-15 15-15-6.714844-15-15 6.714844-15 15-15zm0 422c-8.285156 0-15-6.714844-15-15s6.714844-15 15-15 15 6.714844 15 15-6.714844 15-15 15zm130-16c-63.410156 0-115-51.589844-115-115s51.589844-115 115-115 115 51.589844 115 115-51.589844 115-115 115zm130 16c-8.285156 0-15-6.714844-15-15s6.714844-15 15-15 15 6.714844 15 15-6.714844 15-15 15zm0-392c-8.285156 0-15-6.714844-15-15s6.714844-15 15-15 15 6.714844 15 15-6.714844 15-15 15zm0 0"/><path d="m190 161c19.300781 0 35-15.699219 35-35s-15.699219-35-35-35-35 15.699219-35 35 15.699219 35 35 35zm0 0"/></svg>