<?xml version="1.0" encoding="iso-8859-1"?>
<!-- Generator: Adobe Illustrator 19.0.0, SVG Export Plug-In . SVG Version: 6.00 Build 0)  -->
<svg version="1.1" id="Capa_1" xmlns="http://www.w3.org/2000/svg" xmlns:xlink="http://www.w3.org/1999/xlink" x="0px" y="0px"
	 viewBox="0 0 512 512" style="enable-background:new 0 0 512 512;" xml:space="preserve">
<g>
	<g>
		<path d="M377,60h-36.099c-12.001,0-23.401-4.801-31.8-13.2L284.2,21.899C270.099,7.8,251.201,0,231.099,0H76
			c-6,0-11.1,3.3-13.801,8.699c-2.399,5.4-1.5,11.7,2.401,16.199L181,157.8V75c0-8.401,6.599-15,15-15s15,6.599,15,15v116.999
			L253.001,240H450.2c19.501-19.2,31.8-45.601,31.8-75C482,107.1,434.9,60,377,60z"/>
	</g>
</g>
<g>
	<g>
		<polygon points="181,157.8 181,240 211,240 211,191.999 		"/>
	</g>
</g>
<g>
	<g>
		<path d="M497,270H105c-24.853,0-45,20.147-45,45v16H30c-16.569,0-30,13.431-30,30v15c0,8.284,6.716,15,15,15
			c166.238,0,210.575,0,220.181,0c1.561,0,2.306,0,2.51,0c0.048,0,0.077,0,0.067,0c10.252,0,58.649,0,244.242,0
			c16.569,0,30-13.433,30-30v-76C512,276.714,505.284,270,497,270z"/>
	</g>
</g>
<g>
	<g>
		<path d="M35.51,421l9.607,77.86C46.055,506.36,52.441,512,60,512h30c7.559,0,13.945-5.64,14.883-13.14L114.49,421H35.51z"/>
	</g>
</g>
<g>
	<g>
		<path d="M276.51,421l9.608,77.86c0.937,7.5,7.323,13.14,14.882,13.14h30c7.559,0,13.945-5.64,14.883-13.14L355.49,421H276.51z"/>
	</g>
</g>
<g>
	<g>
		<path d="M397.51,421l9.608,77.86c0.937,7.5,7.323,13.14,14.882,13.14h30c7.559,0,13.945-5.64,14.883-13.14L476.49,421H397.51z"/>
	</g>
</g>
<g>
</g>
<g>
</g>
<g>
</g>
<g>
</g>
<g>
</g>
<g>
</g>
<g>
</g>
<g>
</g>
<g>
</g>
<g>
</g>
<g>
</g>
<g>
</g>
<g>
</g>
<g>
</g>
<g>
</g>
</svg>
