<?xml version="1.0" standalone="no"?>
<!DOCTYPE svg PUBLIC "-//W3C//DTD SVG 20010904//EN"
 "http://www.w3.org/TR/2001/REC-SVG-20010904/DTD/svg10.dtd">
<svg version="1.0" xmlns="http://www.w3.org/2000/svg"
 width="200.000000pt" height="200.000000pt" viewBox="0 0 200.000000 200.000000"
 preserveAspectRatio="xMidYMid meet">
<metadata>
Created by potrace 1.15, written by Peter Selinger 2001-2017
</metadata>
<g transform="translate(0.000000,200.000000) scale(0.100000,-0.100000)"
fill="#000000" stroke="none">
<path d="M1099 1286 c-43 -15 -106 -61 -121 -89 -9 -17 -8 -19 8 -12 48 21 79
17 118 -14 46 -36 73 -39 110 -10 22 17 26 28 24 57 -5 59 -72 92 -139 68z"/>
<path d="M1253 1171 c-128 -80 -45 -282 101 -244 36 10 39 10 22 -3 -14 -10
-49 -14 -118 -14 l-97 0 -10 -32 c-18 -63 -10 -2 9 72 27 103 26 126 -9 161
l-29 29 -129 0 c-76 0 -170 7 -230 17 -101 17 -103 17 -130 -3 -18 -13 -56
-75 -105 -169 -88 -173 -73 -163 -251 -164 -90 -1 -100 -3 -122 -26 -29 -28
-31 -47 -10 -69 24 -24 71 -28 243 -25 185 5 188 6 251 103 24 36 44 66 45 66
1 0 -1 -21 -3 -46 -7 -100 31 -124 199 -124 l120 0 -5 38 c-3 20 -1 62 4 92
10 53 10 53 5 -18 -4 -49 -1 -78 7 -88 9 -11 44 -14 170 -14 152 0 158 1 174
23 l17 22 -7 -24 c-7 -22 -5 -23 21 -17 58 15 100 41 155 97 l56 56 82 -68
c85 -71 114 -85 156 -75 28 7 41 41 30 84 -9 39 -239 252 -272 252 -8 0 -55
-28 -106 -61 -51 -34 -82 -51 -70 -38 53 58 50 139 -6 193 -40 39 -112 46
-158 17z"/>
</g>
</svg>
