<?xml version="1.0" standalone="no"?>
<!DOCTYPE svg PUBLIC "-//W3C//DTD SVG 20010904//EN"
 "http://www.w3.org/TR/2001/REC-SVG-20010904/DTD/svg10.dtd">
<svg version="1.0" xmlns="http://www.w3.org/2000/svg"
 width="256.000000pt" height="256.000000pt" viewBox="0 0 256.000000 256.000000"
 preserveAspectRatio="xMidYMid meet">
<metadata>
Created by potrace 1.15, written by Peter Selinger 2001-2017
</metadata>
<g transform="translate(0.000000,256.000000) scale(0.100000,-0.100000)"
fill="#000000" stroke="none">
<path d="M2047 2127 c4 -6 0 -8 -11 -4 -11 5 -15 3 -10 -5 5 -7 2 -9 -9 -5
-15 6 -42 -15 -32 -25 3 -3 -4 -13 -15 -23 -11 -10 -20 -15 -20 -10 0 4 -6 2
-14 -5 -8 -6 -12 -19 -9 -27 4 -11 2 -14 -5 -9 -8 5 -10 1 -5 -10 5 -13 3 -15
-7 -9 -8 5 -11 4 -7 -2 9 -14 -3 -74 -13 -68 -4 2 -3 -17 1 -43 5 -26 7 -52 4
-59 -2 -7 0 -13 6 -13 6 0 9 -6 6 -14 -3 -8 -3 -16 1 -18 15 -7 71 -86 65 -92
-3 -3 3 -6 13 -6 11 0 30 -9 41 -19 12 -11 24 -17 27 -14 3 4 6 1 6 -6 0 -8 7
-10 21 -6 12 4 19 3 16 -1 -3 -5 16 -7 43 -6 42 3 48 1 53 -20 10 -34 8 -50
-3 -43 -6 3 -7 -1 -4 -9 4 -10 1 -16 -7 -16 -7 0 -10 -3 -6 -6 6 -7 -19 -64
-29 -64 -3 0 -2 5 2 12 4 7 3 8 -4 4 -6 -4 -8 -14 -5 -23 4 -11 3 -14 -5 -9
-8 5 -10 1 -5 -10 4 -11 2 -15 -4 -11 -6 4 -10 -1 -9 -11 0 -9 -4 -16 -11 -15
-8 2 -10 -4 -6 -14 4 -11 3 -14 -5 -9 -8 5 -10 2 -6 -8 3 -9 2 -16 -3 -16 -4
0 -10 -28 -11 -62 -2 -34 -5 -65 -8 -69 -2 -4 1 -11 7 -14 5 -4 8 -14 5 -22
-4 -9 -2 -11 6 -7 8 5 9 2 5 -9 -4 -10 -2 -16 6 -14 7 1 12 -5 12 -14 0 -25
25 -49 42 -42 11 4 14 2 9 -5 -5 -8 -1 -10 10 -5 10 3 15 2 12 -3 -4 -5 9 -9
28 -9 28 0 33 3 32 21 -1 13 -7 20 -14 17 -7 -2 -17 5 -23 16 -14 25 -14 91 0
91 5 0 8 4 5 9 -8 13 4 42 15 35 5 -3 6 1 4 8 -3 8 2 22 11 33 8 11 12 14 8 6
-4 -9 -3 -12 4 -7 6 4 9 12 7 19 -3 7 5 23 16 37 11 14 17 19 13 11 -5 -9 -3
-12 5 -7 6 4 11 13 10 19 -3 25 1 38 11 32 6 -3 7 1 4 9 -3 9 -1 16 5 16 6 0
8 7 5 15 -4 8 -2 15 2 15 5 0 9 29 9 64 0 36 -4 62 -9 58 -5 -3 -7 5 -4 16 4
12 2 19 -3 16 -7 -4 -6 34 2 44 1 1 2 6 3 12 1 12 26 37 26 26 0 -5 6 -3 14 4
8 6 12 19 9 27 -4 11 -2 14 5 9 8 -5 10 -1 5 10 -3 10 -2 15 3 12 11 -7 17 29
17 107 -1 84 -6 124 -17 117 -5 -3 -7 2 -3 11 3 9 1 19 -5 23 -7 5 -8 2 -4 -7
4 -8 -1 -3 -12 11 -11 13 -18 28 -16 32 5 8 -16 22 -36 23 -8 0 -14 5 -13 12
2 8 -4 10 -14 6 -11 -4 -14 -3 -9 5 5 8 1 10 -10 5 -11 -4 -15 -2 -11 4 5 8
-27 11 -103 10 -71 0 -107 -4 -103 -10z"/>
<path d="M400 2119 c-19 -5 -41 -6 -48 -4 -8 3 -10 0 -6 -7 5 -8 2 -9 -10 -5
-11 5 -15 3 -10 -5 5 -8 2 -9 -10 -5 -11 5 -15 3 -10 -5 5 -7 2 -9 -8 -5 -18
6 -78 -52 -71 -70 2 -6 -1 -15 -8 -19 -8 -5 -9 -3 -4 6 5 8 4 11 -3 6 -6 -4
-8 -14 -5 -23 4 -11 3 -14 -5 -9 -8 5 -10 1 -5 -10 4 -10 2 -15 -3 -11 -7 4
-10 -33 -10 -98 0 -65 3 -102 10 -98 5 4 7 -1 3 -11 -5 -11 -3 -15 5 -10 8 5
9 2 5 -9 -4 -10 -2 -16 6 -14 7 1 12 -6 12 -15 0 -25 54 -78 73 -71 11 5 13 3
7 -7 -5 -8 -4 -11 3 -7 12 8 44 -2 38 -12 -2 -3 12 -8 33 -10 82 -8 182 -1
173 13 -3 5 2 6 12 3 11 -5 15 -3 10 5 -5 8 -2 9 9 5 10 -4 16 -2 14 6 -1 7 6
12 15 12 23 0 68 44 62 60 -3 7 0 16 7 21 8 5 10 3 4 -6 -5 -8 -4 -11 3 -6 6
4 8 14 5 23 -4 10 -2 14 4 10 7 -5 9 1 5 15 -3 11 -1 19 4 16 9 -6 14 30 12
92 -1 19 -2 47 -2 62 -1 14 -5 24 -10 20 -5 -3 -7 4 -4 16 4 13 2 20 -6 19 -6
-1 -10 6 -10 15 1 10 -3 15 -9 11 -6 -4 -8 0 -4 9 6 18 -42 68 -60 61 -6 -2
-15 1 -19 8 -5 8 -3 9 6 4 8 -5 11 -4 6 3 -4 6 -14 8 -23 5 -11 -4 -14 -3 -9
5 5 8 1 10 -10 5 -11 -4 -15 -3 -11 4 5 7 -1 9 -15 5 -11 -3 -19 -1 -16 4 7
12 -76 14 -122 3z"/>
<path d="M1474 1769 c-3 -5 -2 -14 1 -19 4 -6 3 -10 -2 -8 -4 1 -25 -14 -45
-34 -27 -26 -36 -42 -31 -54 4 -11 3 -15 -5 -10 -8 5 -8 -1 -1 -22 5 -16 9
-33 7 -38 -2 -5 0 -9 3 -9 12 0 49 -38 44 -45 -3 -4 3 -14 13 -21 15 -13 16
-12 3 4 -12 15 -12 17 3 11 19 -7 19 -9 5 -35 -5 -11 -15 -16 -21 -13 -7 5 -8
2 -3 -6 5 -8 1 -18 -10 -27 -11 -7 -16 -13 -13 -13 3 0 -10 -17 -28 -37 -19
-21 -32 -43 -30 -49 3 -7 -5 -20 -17 -31 l-22 -18 20 25 20 25 -22 -18 c-12
-11 -20 -24 -17 -31 2 -6 -15 -31 -40 -55 -43 -43 -44 -43 -70 -26 -25 17 -38
34 -14 19 7 -4 8 -3 4 4 -4 6 -13 9 -20 6 -8 -3 -17 0 -22 7 -5 8 -3 10 6 4 8
-5 11 -4 6 3 -4 6 -13 9 -20 6 -8 -3 -17 0 -22 7 -5 8 -3 10 6 4 8 -5 11 -4 6
3 -4 6 -14 8 -23 5 -10 -4 -14 -2 -10 4 4 6 -1 10 -11 9 -9 0 -16 4 -15 11 2
7 -3 10 -11 7 -8 -3 -17 0 -22 7 -5 8 -3 10 7 4 8 -5 11 -4 6 1 -5 5 -16 9
-25 9 -9 0 -16 5 -15 11 1 7 -5 11 -15 10 -9 0 -16 4 -15 11 2 8 -4 10 -14 6
-11 -4 -14 -3 -9 5 5 8 1 10 -10 5 -11 -4 -15 -3 -11 4 5 7 0 9 -12 6 -28 -7
-75 21 -116 71 -31 38 -77 73 -60 46 3 -6 -1 -7 -9 -4 -9 3 -13 10 -10 15 3 5
-2 6 -10 3 -8 -3 -21 -2 -28 2 -16 10 -158 11 -151 2 4 -7 0 -9 -33 -12 -6 -1
-22 -13 -35 -27 -13 -14 -17 -16 -9 -4 15 20 15 20 -7 2 -13 -11 -19 -25 -16
-35 5 -11 3 -13 -7 -7 -7 5 -11 4 -8 -1 4 -5 3 -40 -1 -77 -4 -38 -3 -70 1
-73 5 -3 6 -9 3 -14 -3 -5 -1 -11 5 -15 6 -4 8 -10 5 -15 -3 -5 0 -12 6 -16 7
-4 9 -3 6 3 -3 5 0 10 8 10 9 0 4 -14 -16 -44 -17 -23 -33 -43 -36 -43 -3 0 1
8 8 18 13 15 12 16 -3 4 -9 -8 -15 -19 -12 -27 3 -7 0 -16 -7 -21 -8 -5 -10
-3 -4 6 5 9 4 11 -4 6 -6 -4 -8 -12 -5 -18 4 -6 -6 -23 -22 -37 -17 -14 -23
-21 -15 -16 10 7 9 2 -3 -17 -17 -26 -35 -41 -20 -16 4 7 3 8 -4 4 -6 -4 -9
-13 -6 -20 3 -7 -3 -19 -12 -27 -15 -12 -17 -12 -9 0 5 9 4 12 -3 7 -6 -4 -9
-13 -6 -20 3 -8 0 -17 -7 -22 -8 -5 -10 -3 -4 6 5 9 4 11 -4 6 -6 -4 -8 -12
-5 -18 4 -6 -6 -23 -22 -37 -17 -14 -23 -21 -15 -16 10 7 9 2 -3 -17 -17 -26
-35 -41 -20 -16 4 7 3 8 -4 4 -6 -4 -9 -13 -6 -20 3 -7 -3 -19 -12 -27 -15
-12 -17 -12 -9 0 5 9 4 12 -3 7 -6 -4 -9 -13 -6 -20 3 -8 0 -17 -7 -22 -8 -5
-10 -3 -4 7 5 8 4 11 -1 6 -5 -5 -9 -16 -9 -25 0 -9 -6 -16 -13 -14 -8 1 -11
-1 -8 -6 3 -5 -2 -18 -10 -28 -9 -10 -12 -13 -8 -5 4 9 3 12 -4 7 -6 -4 -9
-13 -6 -20 3 -7 -3 -19 -12 -27 -15 -12 -17 -12 -9 0 5 9 4 12 -3 7 -6 -4 -9
-13 -6 -20 3 -8 0 -17 -7 -22 -8 -5 -10 -3 -4 6 5 8 4 11 -3 6 -6 -4 -9 -13
-6 -20 3 -8 0 -17 -7 -22 -8 -5 -10 -3 -4 7 5 8 4 11 -1 6 -5 -5 -9 -16 -9
-25 0 -9 -6 -17 -14 -17 -11 0 -16 -16 -19 -58 -3 -49 0 -62 17 -81 12 -12 19
-25 15 -28 -3 -3 24 -6 60 -5 54 0 69 4 84 21 17 20 16 21 -4 6 -11 -8 -4 0
15 19 20 19 27 28 16 20 -17 -12 -16 -10 4 19 12 17 25 32 28 32 3 0 -1 -8 -8
-18 -13 -15 -12 -16 3 -4 9 8 15 19 12 25 -2 7 6 23 18 37 13 14 19 20 14 13
-7 -10 -4 -12 9 -7 15 6 17 2 14 -34 -3 -22 -1 -38 4 -35 5 3 7 -1 5 -8 -1 -8
0 -14 4 -14 12 0 47 -38 42 -46 -3 -5 3 -6 12 -2 10 3 15 2 12 -3 -4 -5 19 -9
52 -9 33 0 56 4 52 9 -3 5 2 7 10 3 18 -6 58 32 51 50 -2 6 1 15 8 19 8 5 10
3 4 -7 -5 -8 -4 -11 1 -6 5 5 9 16 9 25 0 10 6 16 15 14 8 -2 12 0 8 4 -4 4 0
13 10 21 11 9 12 12 2 8 -8 -4 -3 3 11 16 14 13 32 33 40 43 12 17 12 19 -1
12 -8 -5 -4 2 10 15 14 13 19 20 11 14 -11 -7 -10 -3 3 17 10 15 28 34 42 43
14 9 22 20 19 25 -7 11 74 130 88 130 10 0 5 -8 -39 -70 -29 -41 -44 -107 -20
-92 5 3 7 -5 4 -16 -4 -14 -2 -20 5 -15 7 4 8 0 3 -12 -4 -11 -2 -21 5 -26 6
-4 12 -20 13 -37 0 -17 5 -27 10 -24 5 3 7 -2 3 -10 -7 -19 52 -78 72 -70 8 2
11 1 8 -4 -3 -6 19 -8 51 -6 31 2 69 4 84 5 14 1 24 6 20 11 -3 5 5 7 16 4 14
-4 20 -2 16 4 -4 6 2 8 16 3 17 -5 21 -4 15 6 -6 9 -4 11 8 6 9 -3 19 -2 23 4
3 6 12 8 20 5 8 -3 14 0 14 5 0 6 9 9 20 6 11 -3 18 -1 15 3 -7 11 51 23 66
14 8 -5 9 -3 4 6 -6 10 -3 12 13 8 14 -4 20 -2 15 5 -4 6 2 8 15 5 12 -4 20
-3 17 2 -6 10 42 23 55 15 6 -4 10 -1 10 6 0 6 8 9 20 6 11 -3 18 -2 15 3 -7
11 40 21 61 13 13 -5 15 -3 9 7 -6 10 -4 12 8 7 9 -3 17 -1 19 5 2 6 18 11 36
12 18 0 32 5 32 10 0 4 9 6 20 3 11 -3 18 -1 14 4 -3 5 5 9 18 9 32 0 69 -11
64 -19 -2 -3 12 -6 32 -7 20 0 38 -6 40 -12 2 -7 8 -10 12 -7 12 7 61 -5 56
-14 -2 -3 12 -6 31 -7 19 0 38 -6 43 -14 4 -7 13 -9 19 -6 6 4 11 2 11 -4 0
-7 8 -9 21 -5 16 5 19 4 14 -5 -5 -9 -2 -10 14 -5 11 3 21 2 21 -3 0 -6 10 -8
22 -4 13 3 19 1 15 -5 -4 -6 4 -8 20 -5 19 4 24 2 18 -8 -5 -9 -4 -11 4 -6 17
11 73 -3 65 -16 -5 -7 -2 -8 5 -3 13 8 171 -33 171 -44 0 -4 29 -7 64 -6 35 0
63 2 61 3 -5 5 67 67 75 65 7 -2 6 125 -2 164 -4 23 -26 53 -36 51 -21 -2 -32
3 -26 14 4 7 3 8 -4 4 -16 -10 -63 4 -55 17 3 6 1 7 -6 3 -13 -9 -73 2 -67 12
2 4 -12 8 -32 9 -20 1 -38 6 -40 11 -2 6 -12 7 -24 4 -13 -3 -19 -1 -15 5 5 7
-1 9 -15 5 -16 -4 -19 -2 -13 8 5 9 4 11 -4 6 -14 -9 -73 3 -66 13 2 5 -7 6
-22 3 -17 -3 -24 -1 -19 6 4 6 -2 8 -14 5 -19 -5 -24 4 -23 44 1 7 -4 10 -10
6 -6 -4 -8 4 -5 20 3 16 1 24 -5 20 -6 -4 -8 2 -5 15 4 14 2 20 -4 16 -7 -5
-9 2 -6 19 3 16 1 24 -5 20 -6 -4 -8 2 -5 15 4 14 2 20 -4 16 -6 -4 -8 1 -3
15 4 13 2 21 -5 21 -7 0 -9 8 -5 21 5 14 3 19 -3 15 -13 -8 -26 49 -16 65 4 7
3 9 -4 5 -13 -8 -27 48 -16 65 4 7 3 9 -3 6 -12 -7 -27 38 -18 53 3 4 1 10 -4
12 -5 1 -21 48 -35 102 -26 98 -40 120 -83 132 -29 8 -74 -15 -92 -47 -14 -25
-12 -37 23 -158 20 -72 34 -136 30 -143 -5 -7 -3 -8 6 -3 10 6 12 3 8 -13 -4
-12 -2 -22 4 -22 6 0 8 -9 5 -20 -3 -12 -1 -18 5 -14 7 5 9 -2 6 -19 -3 -16
-1 -24 5 -20 6 4 8 -2 5 -15 -4 -14 -2 -20 4 -16 7 5 9 -2 6 -19 -3 -16 -1
-24 5 -20 6 4 8 -2 5 -15 -4 -14 -2 -20 5 -15 6 4 8 -2 5 -15 -3 -12 -1 -23 6
-26 7 -3 4 -10 -8 -20 -23 -19 -40 -21 -30 -4 4 7 3 8 -5 4 -13 -9 -73 2 -67
12 2 4 -8 8 -22 8 -69 4 -144 12 -148 16 -8 9 8 38 17 32 5 -3 6 3 2 12 -4 12
-3 15 5 10 8 -5 10 -1 5 10 -4 12 -3 15 5 10 8 -5 10 -1 5 10 -4 12 -3 15 5
10 7 -4 10 -2 7 6 -3 8 2 22 11 33 8 11 13 14 9 8 -12 -24 3 -13 21 15 17 26
17 27 -2 12 -18 -14 -18 -14 -5 5 8 11 34 40 58 65 l42 45 -29 99 c-17 55 -30
112 -30 127 0 42 38 79 87 86 37 5 46 2 71 -23 18 -19 32 -48 41 -86 6 -31 19
-59 27 -62 7 -3 15 0 15 7 1 7 2 17 4 22 1 6 3 16 3 23 1 7 5 11 10 9 4 -3 7
28 7 68 0 42 -4 71 -9 67 -5 -3 -7 1 -4 10 4 8 -2 20 -13 26 -10 7 -19 18 -19
25 0 7 7 3 15 -7 8 -11 17 -18 19 -15 2 2 -7 17 -20 32 -13 15 -24 23 -24 17
0 -7 -6 -10 -12 -7 -7 2 -12 9 -11 15 2 7 -4 9 -14 5 -11 -4 -14 -3 -9 5 5 8
1 10 -10 5 -10 -4 -15 -2 -11 3 7 12 -40 11 -50 -1 -5 -4 -1 -5 7 -1 8 4 4 -2
-10 -13 -15 -12 -33 -18 -44 -15 -13 5 -16 3 -11 -7 6 -9 4 -11 -8 -6 -9 3
-19 2 -22 -3 -4 -6 -22 -10 -41 -10 -24 0 -33 4 -28 12 4 7 3 8 -5 4 -14 -9
-53 2 -46 13 2 5 -6 6 -19 4 -12 -3 -29 2 -37 9 -18 19 -57 29 -65 17z"/>
</g>
</svg>
