<?xml version="1.0" encoding="iso-8859-1"?>
<!-- Generator: Adobe Illustrator 16.0.0, SVG Export Plug-In . SVG Version: 6.00 Build 0)  -->
<!DOCTYPE svg PUBLIC "-//W3C//DTD SVG 1.1//EN" "http://www.w3.org/Graphics/SVG/1.1/DTD/svg11.dtd">
<svg version="1.1" id="Capa_1" xmlns="http://www.w3.org/2000/svg" xmlns:xlink="http://www.w3.org/1999/xlink" x="0px" y="0px"
	 width="16.396px" height="16.397px" viewBox="0 0 16.396 16.397" style="enable-background:new 0 0 16.396 16.397;"
	 xml:space="preserve">
<g>
	<path d="M14.217,3.204h-1.814v-2.25c0-0.301-0.244-0.545-0.545-0.545H6.42v2.392h1.242l1.285,1.644v5.707H3.38V4.445l1.285-1.644
		h1.242V0.409H0.545C0.244,0.409,0,0.653,0,0.954v14.489c0,0.301,0.244,0.545,0.545,0.545h11.312c0.302,0,0.545-0.244,0.545-0.545
		v-3.248h1.815c1.201,0,2.179-0.978,2.179-2.179V5.382C16.396,4.181,15.419,3.204,14.217,3.204z M14.943,10.016
		c0,0.4-0.324,0.726-0.726,0.726h-1.815V4.656h1.815c0.401,0,0.726,0.325,0.726,0.726V10.016z"/>
	<circle cx="5.396" cy="2.18" r="0.542"/>
</g>
<g>
</g>
<g>
</g>
<g>
</g>
<g>
</g>
<g>
</g>
<g>
</g>
<g>
</g>
<g>
</g>
<g>
</g>
<g>
</g>
<g>
</g>
<g>
</g>
<g>
</g>
<g>
</g>
<g>
</g>
</svg>
