<?xml version="1.0" encoding="iso-8859-1"?>
<!-- Generator: Adobe Illustrator 16.0.0, SVG Export Plug-In . SVG Version: 6.00 Build 0)  -->
<!DOCTYPE svg PUBLIC "-//W3C//DTD SVG 1.1//EN" "http://www.w3.org/Graphics/SVG/1.1/DTD/svg11.dtd">
<svg version="1.1" id="Capa_1" xmlns="http://www.w3.org/2000/svg" xmlns:xlink="http://www.w3.org/1999/xlink" x="0px" y="0px"
	 width="20.913px" height="20.913px" viewBox="0 0 20.913 20.913" style="enable-background:new 0 0 20.913 20.913;"
	 xml:space="preserve">
<g>
	<path d="M15.915,5.991c0-1.645-0.588-3.946-1.499-5.862L14.355,0H6.558L6.497,0.129C5.586,2.045,4.998,4.346,4.998,5.991
		c0,2.842,1.802,4.991,4.412,5.446c-0.012,0.041-0.026,0.082-0.026,0.127v1.058c0,0.19,0.119,0.353,0.286,0.418
		c-0.001,0.024-0.004,0.046-0.004,0.071c0,0.445,0.228,3.258,0.439,5.767c-0.001,0.004-0.001,0.007-0.002,0.011
		c0.003,0.012,0.004,0.023,0.006,0.036c0.015,0.173,0.029,0.345,0.043,0.513c-0.035,0.552-0.423,0.547-0.714,1.023H7.379
		c-0.249,0-0.452,0.202-0.452,0.452h7.057c0-0.249-0.201-0.452-0.451-0.452h-2.059c-0.291-0.477-0.679-0.472-0.713-1.023
		c0.014-0.17,0.029-0.34,0.043-0.513c0.002-0.013,0.004-0.024,0.006-0.036c-0.001-0.005-0.001-0.008-0.002-0.011
		c0.211-2.509,0.439-5.321,0.439-5.767c0-0.025-0.004-0.047-0.004-0.071c0.167-0.065,0.286-0.228,0.286-0.418v-1.058
		c0-0.045-0.014-0.086-0.026-0.127C14.113,10.982,15.915,8.833,15.915,5.991z M6.845,0.452h7.223
		c0.375,0.81,0.688,1.698,0.927,2.571H6.668C5.951,5.332,5.718,7.397,7.09,9.61c-1.2-0.934-1.585-2.361-1.639-3.662
		C5.461,4.428,6.015,2.244,6.845,0.452z"/>
</g>
<g>
</g>
<g>
</g>
<g>
</g>
<g>
</g>
<g>
</g>
<g>
</g>
<g>
</g>
<g>
</g>
<g>
</g>
<g>
</g>
<g>
</g>
<g>
</g>
<g>
</g>
<g>
</g>
<g>
</g>
</svg>
